<svg xmlns="http://www.w3.org/2000/svg" width="90" height="88" viewBox="0 0 90 88" fill="none">
  <path d="M88.1994 43.9812C88.1994 67.5085 68.778 86.6217 44.77 86.6217C20.7621 86.6217 1.34066 67.5085 1.34066 43.9812C1.34066 20.4538 20.7621 1.34066 44.77 1.34066C68.778 1.34066 88.1994 20.4538 88.1994 43.9812Z" stroke="#F7F1F1" stroke-width="2.68132" />
  <path d="M26.9646 45.5752C26.9646 14.1485 45.7658 10.7049 44.5855 45.5752C44.009 62.6054 46.988 67.6568 53.8766 67.6568C63.3609 67.6568 62.2063 56.0638 62.2063 45.5752H26.9646ZM26.9646 45.5752C26.7307 55.6958 26.9672 67.6568 26.9672 67.6568" stroke="#F4F4F4" stroke-width="2.68132" />
  <ellipse cx="62.1492" cy="33.1153" rx="4.21365" ry="4.1394" fill="#43F8D7" />
</svg>