<svg width="513" height="843" viewBox="0 0 513 843" fill="none" xmlns="http://www.w3.org/2000/svg">
<path d="M86.6712 872.955L99.4756 709.241C106.953 613.643 163.296 528.696 248.458 484.625L265.753 475.674C327.12 443.917 371.418 386.782 386.887 319.439L393.554 290.413C414.117 200.894 493.634 137.334 585.483 137V137" stroke="#23303D" stroke-width="23.4696"/>
<path d="M12.1596 870.987L31.0053 629.86C37.5472 546.158 93.5869 474.516 173.251 448.012V448.012C244.194 424.408 297.102 364.672 311.964 291.397L320.342 250.091C326.904 217.735 339.12 186.79 356.429 158.676V158.676C415.377 62.9278 525.751 11.5665 636.963 28.1316L679.493 34.4664" stroke="#23303D" stroke-width="23.4696"/>
</svg>
