<svg width="407" height="602" viewBox="0 0 407 602" fill="none" xmlns="http://www.w3.org/2000/svg">
<path d="M-464.446 86.5036L-300.792 100.056C-205.23 107.969 -120.541 164.7 -76.859 250.062L-67.9875 267.399C-36.511 328.91 20.4209 373.468 87.6927 389.245L116.688 396.044C206.112 417.016 269.308 496.822 269.223 588.672V588.672" stroke="#23303D" stroke-width="23.4696"/>
<path d="M-462.139 12.0021L-221.1 31.9489C-137.429 38.873 -66.0437 95.2394 -39.9031 175.023V175.023C-16.6239 246.074 42.8697 299.254 116.076 314.451L157.344 323.017C189.669 329.727 220.559 342.084 248.593 359.521V359.521C344.071 418.906 394.928 529.513 377.855 640.649L371.326 683.149" stroke="#23303D" stroke-width="23.4696"/>
</svg>
